<?xml version="1.0" encoding="UTF-8"?>
<svg version="1.1" xmlns="http://www.w3.org/2000/svg" width="116" height="112">
<path d="M0 0 C2.25092058 2.25092058 3.5890608 4.1781216 5 7 C6.36125 7.12375 6.36125 7.12375 7.75 7.25 C12.32024341 8.30467156 13.36022395 10.19561687 16 14 C16 14.66 16 15.32 16 16 C17.5778125 15.8453125 17.5778125 15.8453125 19.1875 15.6875 C23 16 23 16 25.5625 18 C34 28.38461538 34 28.38461538 34 31 C34.53625 31.226875 35.0725 31.45375 35.625 31.6875 C38 33 38 33 40.375 35.375 C43.51155884 38.09864477 46.70096675 38.8962088 50.6875 39.9375 C62.64517525 43.1001728 72.60029102 48.47875837 78.9765625 59.37890625 C84.04355498 68.99136424 86.32864866 77.05855544 86.1875 87.875 C86.1865332 89.31746094 86.1865332 89.31746094 86.18554688 90.7890625 C86.14060834 97.85939166 86.14060834 97.85939166 85 99 C83.64686107 99.11349704 82.28795355 99.15950735 80.93017578 99.17700195 C79.63214523 99.19625481 79.63214523 99.19625481 78.30789185 99.21589661 C77.36324066 99.22328354 76.41858948 99.23067047 75.4453125 99.23828125 C74.47399384 99.246353 73.50267517 99.25442474 72.50192261 99.26274109 C70.4355448 99.2766096 68.36914382 99.2873193 66.30273438 99.29516602 C63.17271722 99.31223971 60.04379498 99.35608328 56.9140625 99.40039062 C40.19688277 99.53137553 28.43584845 96.89858703 15.8125 85.375 C8.26214168 77.3884656 5.7423812 68.71392727 4.24829102 58.15429688 C3.33724169 52.45011222 1.40409386 48.78730368 -2.23046875 44.2421875 C-10.03709302 34.35035013 -14.39743462 19.69215471 -14.29296875 7.15625 C-13.85109252 3.90404093 -12.34220523 2.20442845 -10 0 C-6.73329923 -1.63335038 -3.39471918 -1.00161021 0 0 Z " fill="#010A0C" transform="translate(21,11)"/>
<path d="M0 0 C3.21301068 0.30600102 4.60797715 0.54900027 6.765625 3.03125 C7.25546875 3.8459375 7.7453125 4.660625 8.25 5.5 C8.75015625 6.3146875 9.2503125 7.129375 9.765625 7.96875 C10.17296875 8.6390625 10.5803125 9.309375 11 10 C12.89387474 11.89387474 16.22686196 11.17614545 18.74609375 11.2109375 C20.15560965 11.2390522 21.56511467 11.26771683 22.97460938 11.296875 C25.19261833 11.33779138 27.41043415 11.37467431 29.62866211 11.40136719 C43.12013182 11.57774614 56.05495124 12.93342085 66.04296875 23.07421875 C73.24850641 31.87757286 76.17831204 40.52541967 76.0625 51.875 C76.05347656 53.02742188 76.04445313 54.17984375 76.03515625 55.3671875 C76.02355469 56.23601562 76.01195313 57.10484375 76 58 C70.78968727 58.09980707 65.57994615 58.17190561 60.36889648 58.21972656 C58.60089407 58.23968762 56.83295634 58.26686652 55.06518555 58.30175781 C41.66910459 58.55930192 30.74426941 57.96099967 20.00390625 48.98828125 C16.68265837 45.69293004 14.27672515 42.06872817 12 38 C11.4225 36.96875 10.845 35.9375 10.25 34.875 C8.76598205 31.26975866 8.65925557 27.60716873 8.3125 23.75 C7.52236919 16.62471319 5.30341852 12.67564744 0.58203125 7.3671875 C-1 5 -1 5 -0.73828125 2.1953125 C-0.49464844 1.47085938 -0.25101563 0.74640625 0 0 Z " fill="#70A924" transform="translate(24,45)"/>
<path d="M0 0 C2.25092058 2.25092058 3.5890608 4.1781216 5 7 C6.36125 7.12375 6.36125 7.12375 7.75 7.25 C12.32024341 8.30467156 13.36022395 10.19561687 16 14 C16 14.66 16 15.32 16 16 C17.5778125 15.8453125 17.5778125 15.8453125 19.1875 15.6875 C23 16 23 16 25.5625 18 C34 28.38461538 34 28.38461538 34 31 C34.639375 31.28875 35.27875 31.5775 35.9375 31.875 C38 33 38 33 39 35 C38.01 35.33 37.02 35.66 36 36 C35.26676204 38.01508358 35.26676204 38.01508358 35 40 C33.741875 40.04125 32.48375 40.0825 31.1875 40.125 C30.47980469 40.14820313 29.77210937 40.17140625 29.04296875 40.1953125 C27 40 27 40 24 38 C24 38.66 24 39.32 24 40 C23 40 22 40 21 40 C20.113125 40.185625 19.22625 40.37125 18.3125 40.5625 C15 40 15 40 13.375 38.171875 C11.821136 35.82554035 10.38326356 33.45046988 9 31 C7.1081528 27.33217219 7.1081528 27.33217219 4 25 C3.67 26.65 3.34 28.3 3 30 C1.35 30 -0.3 30 -2 30 C-2.65043719 28.27255984 -3.29514844 26.5429631 -3.9375 24.8125 C-4.29714844 23.84957031 -4.65679687 22.88664062 -5.02734375 21.89453125 C-6.59882583 17.21795206 -7.12188332 13.1163157 -7.0625 8.1875 C-7.05347656 7.21167969 -7.04445313 6.23585938 -7.03515625 5.23046875 C-7.02355469 4.49441406 -7.01195312 3.75835937 -7 3 C-8.98 4.32 -10.96 5.64 -13 7 C-12.68609108 4.09634245 -12.32634412 2.39161294 -10.4375 0.125 C-6.85772434 -1.52720415 -3.6475222 -1.25079303 0 0 Z " fill="#020911" transform="translate(21,11)"/>
<path d="M0 0 C3.76530232 0.26895017 5.91738013 0.9469537 9.12109375 3.00390625 C13.45159806 5.55008239 17.5041165 5.66254276 22.4375 5.75 C23.67790039 5.79447266 23.67790039 5.79447266 24.94335938 5.83984375 C26.96173177 5.9098451 28.98086623 5.95726701 31 6 C31.38218767 7.65614657 31.71395102 9.32457024 32 11 C31 12 31 12 28.93359375 12.09765625 C28.10988281 12.08605469 27.28617188 12.07445313 26.4375 12.0625 C25.61121094 12.05347656 24.78492187 12.04445313 23.93359375 12.03515625 C23.29550781 12.02355469 22.65742187 12.01195313 22 12 C24.70857385 16.29286674 24.70857385 16.29286674 29.00634766 18.58886719 C31.29022613 18.81284639 33.51785456 18.8826937 35.8125 18.875 C36.60076172 18.895625 37.38902344 18.91625 38.20117188 18.9375 C40.13365908 18.98434817 42.06694972 18.99573749 44 19 C44.625 20.875 44.625 20.875 45 23 C41.99382731 26.00617269 39.17618402 25.59585316 35 26 C35.66128906 26.59167969 36.32257813 27.18335937 37.00390625 27.79296875 C38.27041016 28.97826172 38.27041016 28.97826172 39.5625 30.1875 C40.40941406 30.96480469 41.25632813 31.74210937 42.12890625 32.54296875 C44 35 44 35 43.77734375 37.80078125 C43.52082031 38.52652344 43.26429687 39.25226563 43 40 C38.89552608 39.48223379 37.04300477 37.35372556 34.25 34.4375 C33.45078125 33.61121094 32.6515625 32.78492188 31.828125 31.93359375 C31.22484375 31.29550781 30.6215625 30.65742187 30 30 C29.67 32.97 29.34 35.94 29 39 C27.34385343 39.38218767 25.67542976 39.71395102 24 40 C21.76013611 37.76013611 22.69818559 31.54163518 22.65820312 28.34570312 C22.49352099 23.51373235 22.49352099 23.51373235 19.95703125 19.45703125 C18.98830078 18.73580078 18.98830078 18.73580078 18 18 C17.9175 19.27875 17.835 20.5575 17.75 21.875 C17.27313965 25.77972609 17.27313965 25.77972609 15.0625 27.5625 C13 28 13 28 11 27 C10.68758545 24.28553021 10.48663408 21.66090639 10.375 18.9375 C10.33632813 18.17888672 10.29765625 17.42027344 10.2578125 16.63867188 C10.16326438 14.75952805 10.08053244 12.87979664 10 11 C6.37 9.35 2.74 7.7 -1 6 C-1 1 -1 1 0 0 Z " fill="#137B0C" transform="translate(46,60)"/>
<path d="M0 0 C3.21301068 0.30600102 4.60797715 0.54900027 6.765625 3.03125 C7.25546875 3.8459375 7.7453125 4.660625 8.25 5.5 C8.75015625 6.3146875 9.2503125 7.129375 9.765625 7.96875 C10.17296875 8.6390625 10.5803125 9.309375 11 10 C12.89387474 11.89387474 16.22686196 11.17614545 18.74609375 11.2109375 C20.15560965 11.2390522 21.56511467 11.26771683 22.97460938 11.296875 C25.19261833 11.33779138 27.41043415 11.37467431 29.62866211 11.40136719 C40.44449723 11.54276659 50.14738227 12.15349353 59.5625 18.0625 C60.38878906 18.56910156 61.21507812 19.07570313 62.06640625 19.59765625 C64 21 64 21 65 23 C60.48588166 22.1725862 57.15225666 19.71384824 53.33984375 17.27734375 C51.00543581 15.76041995 51.00543581 15.76041995 48 16 C48 15.34 48 14.68 48 14 C39.42 14 30.84 14 22 14 C21.67 16.97 21.34 19.94 21 23 C20.34 23 19.68 23 19 23 C18.505 20.525 18.505 20.525 18 18 C15.36 18 12.72 18 10 18 C10.33 22.62 10.66 27.24 11 32 C10.34 31.67 9.68 31.34 9 31 C8.73148085 28.71460368 8.53665014 26.42043201 8.375 24.125 C7.7031735 16.98780133 5.41347732 12.79939131 0.58203125 7.3671875 C-1 5 -1 5 -0.73828125 2.1953125 C-0.49464844 1.47085938 -0.25101563 0.74640625 0 0 Z " fill="#70A42B" transform="translate(24,45)"/>
<path d="M0 0 C1.32 0.66 2.64 1.32 4 2 C3.01 2 2.02 2 1 2 C2.02404728 10.92728279 3.31648472 19.39486101 6 28 C6.99 28 7.98 28 9 28 C8.01 30.475 8.01 30.475 7 33 C6.01 33 5.02 33 4 33 C4 34.32 4 35.64 4 37 C4.66 37 5.32 37 6 37 C5.67 37.99 5.34 38.98 5 40 C-3.58748668 30.27969592 -6.40243565 15.676723 -6 3 C-5.01 3 -4.02 3 -3 3 C-1.31201173 1.56249809 -1.31201173 1.56249809 0 0 Z " fill="#010E16" transform="translate(13,13)"/>
<path d="M0 0 C0.33 0.66 0.66 1.32 1 2 C1.99 2.33 2.98 2.66 4 3 C3.360625 3.268125 2.72125 3.53625 2.0625 3.8125 C-0.33131686 4.88667752 -0.33131686 4.88667752 -1 8 C3.29 8.33 7.58 8.66 12 9 C12.33 8.34 12.66 7.68 13 7 C13.33 8.32 13.66 9.64 14 11 C15.32 11.33 16.64 11.66 18 12 C17.67 13.98 17.34 15.96 17 18 C13.846632 18.70074844 11.27275026 19 8 19 C8.33 20.65 8.66 22.3 9 24 C7.83040013 23.02433888 6.66438823 22.044375 5.5 21.0625 C4.8503125 20.51722656 4.200625 19.97195312 3.53125 19.41015625 C3.0259375 18.94480469 2.520625 18.47945312 2 18 C2 17.67 2 17.34 2 17 C4.97 16.67 7.94 16.34 11 16 C11.33 14.35 11.66 12.7 12 11 C6.39 11 0.78 11 -5 11 C-5.66 9.68 -6.32 8.36 -7 7 C-7.99 6.67 -8.98 6.34 -10 6 C-10 5.34 -10 4.68 -10 4 C-5.545 3.505 -5.545 3.505 -1 3 C-0.67 2.01 -0.34 1.02 0 0 Z " fill="#6BAB29" transform="translate(78,68)"/>
<path d="M0 0 C0.99 0.33 1.98 0.66 3 1 C4.140625 3.7734375 4.140625 3.7734375 5.25 7.375 C7.50280315 14.29859715 10.78217178 20.04398897 15 26 C12.19140625 26.23046875 12.19140625 26.23046875 9 26 C3.30047272 20.99837402 -0.30477254 11.19508474 -2 4 C-1.125 1.61328125 -1.125 1.61328125 0 0 Z " fill="#8ABAE0" transform="translate(27,25)"/>
<path d="M0 0 C3.21301068 0.30600102 4.60797715 0.54900027 6.765625 3.03125 C7.25546875 3.8459375 7.7453125 4.660625 8.25 5.5 C8.75015625 6.3146875 9.2503125 7.129375 9.765625 7.96875 C10.17296875 8.6390625 10.5803125 9.309375 11 10 C12.89387474 11.89387474 16.22686196 11.17614545 18.74609375 11.2109375 C20.15560965 11.2390522 21.56511467 11.26771683 22.97460938 11.296875 C25.19261833 11.33779138 27.41043415 11.37467431 29.62866211 11.40136719 C40.44449723 11.54276659 50.14738227 12.15349353 59.5625 18.0625 C60.38878906 18.56910156 61.21507812 19.07570313 62.06640625 19.59765625 C64 21 64 21 65 23 C60.48588166 22.1725862 57.15225666 19.71384824 53.33984375 17.27734375 C51.00543581 15.76041995 51.00543581 15.76041995 48 16 C48 15.34 48 14.68 48 14 C47.23445801 14.0407666 46.46891602 14.0815332 45.68017578 14.12353516 C42.16230801 14.30354379 38.64380471 14.46439066 35.125 14.625 C33.31902344 14.72167969 33.31902344 14.72167969 31.4765625 14.8203125 C14.13902116 15.57411865 14.13902116 15.57411865 9.23095703 11.54931641 C8 10 8 10 8 8 C7.01 7.67 6.02 7.34 5 7 C4.33333333 5 3.66666667 3 3 1 C2.01 0.67 1.02 0.34 0 0 Z " fill="#739E34" transform="translate(24,45)"/>
<path d="M0 0 C0.99 0 1.98 0 3 0 C4.79704634 7.64343712 6.52033871 15.28835349 8 23 C6.68 23.33 5.36 23.66 4 24 C3.34956281 22.27255984 2.70485156 20.5429631 2.0625 18.8125 C1.70285156 17.84957031 1.34320312 16.88664062 0.97265625 15.89453125 C-0.72911583 10.83022157 -1.20580344 6.35088945 -1 1 C-0.67 0.67 -0.34 0.34 0 0 Z " fill="#88B8DE" transform="translate(15,17)"/>
<path d="M0 0 C1.84765625 0.14453125 1.84765625 0.14453125 4 1 C5.74609375 3.07421875 5.74609375 3.07421875 7.4375 5.6875 C10.10005059 9.68706414 12.85183507 13.37484038 16 17 C13.08601759 17.60707967 11.7866164 17.85742043 9 17 C4.04615021 12.41079625 0.87141609 7.47870951 -1 1 C-0.67 0.67 -0.34 0.34 0 0 Z " fill="#89BCE4" transform="translate(39,34)"/>
<path d="M0 0 C1.6875 0.125 1.6875 0.125 4 1 C5.69088222 2.97956942 7.35830472 4.97945196 9 7 C9.99 7.33 10.98 7.66 12 8 C12 8.66 12 9.32 12 10 C22.0946074 13.21700376 31.77123054 13.5387815 42.25 13.6875 C43.88153641 13.72075363 45.51304797 13.75525038 47.14453125 13.79101562 C51.09621457 13.87498441 55.04785061 13.94221817 59 14 C59 10.7 59 7.4 59 4 C59.33 4 59.66 4 60 4 C60 7.63 60 11.26 60 15 C54.78968727 15.09980707 49.57994615 15.17190561 44.36889648 15.21972656 C42.60089407 15.23968762 40.83295634 15.26686652 39.06518555 15.30175781 C26.96680023 15.53435329 15.79899137 15.61038543 5.9375 7.5 C5.22464844 6.9328125 4.51179688 6.365625 3.77734375 5.78125 C1.95775147 3.95765862 0.99829808 2.35867318 0 0 Z " fill="#759C3D" transform="translate(40,88)"/>
<path d="M0 0 C4.875 4.625 4.875 4.625 6 8 C7.31647119 8.69937532 8.65022151 9.36729133 10 10 C10.33 10.66 10.66 11.32 11 12 C10.01 12.33 9.02 12.66 8 13 C7.34 14.32 6.68 15.64 6 17 C3.36 14.36 0.72 11.72 -2 9 C-0.68 8.34 0.64 7.68 2 7 C1.34 4.69 0.68 2.38 0 0 Z " fill="#01101B" transform="translate(49,34)"/>
<path d="M0 0 C0.33 0.66 0.66 1.32 1 2 C1.99 2.33 2.98 2.66 4 3 C3.360625 3.268125 2.72125 3.53625 2.0625 3.8125 C-0.33131686 4.88667752 -0.33131686 4.88667752 -1 8 C-1.99 8.495 -1.99 8.495 -3 9 C3.93 9.495 3.93 9.495 11 10 C11 10.33 11 10.66 11 11 C5.72 11 0.44 11 -5 11 C-5.66 9.68 -6.32 8.36 -7 7 C-7.99 6.67 -8.98 6.34 -10 6 C-10 5.34 -10 4.68 -10 4 C-5.545 3.505 -5.545 3.505 -1 3 C-0.67 2.01 -0.34 1.02 0 0 Z " fill="#5AA222" transform="translate(78,68)"/>
<path d="M0 0 C3.21301068 0.30600102 4.60797715 0.54900027 6.765625 3.03125 C7.25546875 3.8459375 7.7453125 4.660625 8.25 5.5 C8.75015625 6.3146875 9.2503125 7.129375 9.765625 7.96875 C10.17296875 8.6390625 10.5803125 9.309375 11 10 C12.9230889 11.9230889 16.47070485 11.25321838 19.09765625 11.31640625 C20.16094398 11.3475779 20.16094398 11.3475779 21.24571228 11.37937927 C23.51787305 11.44494598 25.79015264 11.5037923 28.0625 11.5625 C29.59962183 11.60567849 31.1367315 11.64929255 32.67382812 11.69335938 C36.4490959 11.80063449 40.2244836 11.90188137 44 12 C44 12.33 44 12.66 44 13 C39.35526018 13.07416067 34.71086501 13.12860615 30.06567383 13.16479492 C28.48553464 13.17988094 26.90543731 13.2003525 25.32543945 13.22631836 C23.05409415 13.26271126 20.78330241 13.27972762 18.51171875 13.29296875 C17.45219246 13.31619453 17.45219246 13.31619453 16.3712616 13.33988953 C13.42493352 13.34090037 11.47844894 13.33847875 9.03051758 11.60668945 C8 10 8 10 8 8 C7.01 7.67 6.02 7.34 5 7 C4.33333333 5 3.66666667 3 3 1 C2.01 0.67 1.02 0.34 0 0 Z " fill="#72953D" transform="translate(24,45)"/>
<path d="M0 0 C5.62511657 3.6630401 5.62511657 3.6630401 6.58886719 7.10009766 C6.81329991 9.51858869 6.88266762 11.8837814 6.875 14.3125 C6.895625 15.14845703 6.91625 15.98441406 6.9375 16.84570312 C6.98438005 18.8967055 6.99573929 20.94846635 7 23 C6.34 23 5.68 23 5 23 C4.34 16.73 3.68 10.46 3 4 C2.34 4 1.68 4 1 4 C1.061875 4.928125 1.12375 5.85625 1.1875 6.8125 C1 10 1 10 -0.5 11.875 C-1.2425 12.431875 -1.2425 12.431875 -2 13 C-2.99 12.67 -3.98 12.34 -5 12 C-4.360625 11.690625 -3.72125 11.38125 -3.0625 11.0625 C0.09768575 7.90231425 -0.18099207 4.31666092 0 0 Z " fill="#62AB2D" transform="translate(63,77)"/>
<path d="M0 0 C3.17239897 2.88091787 4.99644695 5.53530325 6.75 9.4375 C7.39195313 10.82775391 7.39195313 10.82775391 8.046875 12.24609375 C9.01106601 15.03197351 9.19087637 17.07853116 9 20 C7.29159719 18.36587557 6.06546953 17.13093906 5 15 C5 13.68 5 12.36 5 11 C4.01 10.67 3.02 10.34 2 10 C0.25 6.625 0.25 6.625 -1 3 C-0.67 2.01 -0.34 1.02 0 0 Z " fill="#72A12C" transform="translate(90,69)"/>
<path d="M0 0 C0.99 0.33 1.98 0.66 3 1 C3.94921875 3.28515625 3.94921875 3.28515625 4.6875 6.0625 C4.93886719 6.98160156 5.19023438 7.90070312 5.44921875 8.84765625 C5.63097656 9.55792969 5.81273437 10.26820312 6 11 C4.0625 10.6875 4.0625 10.6875 2 10 C1.67 9.01 1.34 8.02 1 7 C0.34 7 -0.32 7 -1 7 C-1.625 4.625 -1.625 4.625 -2 2 C-1.34 1.34 -0.68 0.68 0 0 Z " fill="#80B0D5" transform="translate(27,25)"/>
<path d="M0 0 C0.66 0 1.32 0 2 0 C2 4.95 2 9.9 2 15 C2.66 15 3.32 15 4 15 C4.185625 13.2984375 4.185625 13.2984375 4.375 11.5625 C4.58125 10.386875 4.7875 9.21125 5 8 C5.66 7.67 6.32 7.34 7 7 C7 9.97 7 12.94 7 16 C5.02 16.99 5.02 16.99 3 18 C2.34 17.67 1.68 17.34 1 17 C0.67 11.39 0.34 5.78 0 0 Z " fill="#1D7804" transform="translate(56,70)"/>
<path d="M0 0 C2.6486859 3.19668988 4.93992341 6.39486597 7 10 C4.25 10.375 4.25 10.375 1 10 C-1.375 7 -1.375 7 -3 4 C-2.01 4 -1.02 4 0 4 C-0.33 3.34 -0.66 2.68 -1 2 C-0.67 1.34 -0.34 0.68 0 0 Z " fill="#87B4D4" transform="translate(35,41)"/>
<path d="M0 0 C2.26273207 3.55818936 2.07331744 6.12547951 1.625 10.25 C1.51414062 11.32765625 1.40328125 12.4053125 1.2890625 13.515625 C1.19367188 14.33546875 1.09828125 15.1553125 1 16 C1.99 15.67 2.98 15.34 4 15 C4.33 13.02 4.66 11.04 5 9 C5.33 9 5.66 9 6 9 C6 11.64 6 14.28 6 17 C4.34385343 17.38218767 2.67542976 17.71395102 1 18 C0 17 0 17 -0.09765625 13.18359375 C-0.09098089 11.60153318 -0.07901875 10.01948841 -0.0625 8.4375 C-0.05798828 7.63119141 -0.05347656 6.82488281 -0.04882812 5.99414062 C-0.03700518 3.99606244 -0.01906914 1.99802217 0 0 Z " fill="#207801" transform="translate(69,82)"/>
<path d="M0 0 C5.61 0 11.22 0 17 0 C17.33 1.65 17.66 3.3 18 5 C17 6 17 6 14.93359375 6.09765625 C14.10988281 6.08605469 13.28617188 6.07445313 12.4375 6.0625 C11.61121094 6.05347656 10.78492187 6.04445313 9.93359375 6.03515625 C9.29550781 6.02355469 8.65742187 6.01195313 8 6 C8 5.67 8 5.34 8 5 C10.64 5 13.28 5 16 5 C15.67 4.01 15.34 3.02 15 2 C10.05 1.67 5.1 1.34 0 1 C0 0.67 0 0.34 0 0 Z " fill="#217D08" transform="translate(60,66)"/>
<path d="M0 0 C2.02054804 1.64169528 4.02043058 3.30911778 6 5 C6 5.33 6 5.66 6 6 C2.6875 6.25 2.6875 6.25 -1 6 C-2.9375 4 -2.9375 4 -4 2 C-3.34 1.67 -2.68 1.34 -2 1 C-2 1.66 -2 2.32 -2 3 C-1.34 2.67 -0.68 2.34 0 2 C0 1.34 0 0.68 0 0 Z " fill="#88AFCD" transform="translate(49,45)"/>
<path d="M0 0 C0.99 0.33 1.98 0.66 3 1 C3 6.28 3 11.56 3 17 C2.67 17 2.34 17 2 17 C1.34 11.39 0.68 5.78 0 0 Z " fill="#64AB2D" transform="translate(54,70)"/>
<path d="M0 0 C2.375 0.1875 2.375 0.1875 5 1 C6.3125 3.5625 6.3125 3.5625 7 6 C2.25 5.25 2.25 5.25 0 3 C0 2.01 0 1.02 0 0 Z " fill="#88BDE7" transform="translate(43,42)"/>
<path d="M0 0 C2.31 0 4.62 0 7 0 C7 0.99 7 1.98 7 3 C8.32 3 9.64 3 11 3 C11 3.99 11 4.98 11 6 C6.95743617 4.77782954 3.50711041 3.37245704 0 1 C0 0.67 0 0.34 0 0 Z " fill="#00142E" transform="translate(45,102)"/>
<path d="M0 0 C0.99 0 1.98 0 3 0 C3.33 1.65 3.66 3.3 4 5 C3.01 5.495 3.01 5.495 2 6 C2 5.34 2 4.68 2 4 C1.34 4 0.68 4 0 4 C-0.33 4.99 -0.66 5.98 -1 7 C-1.04254356 5.00045254 -1.04080783 2.99958364 -1 1 C-0.67 0.67 -0.34 0.34 0 0 Z " fill="#88ADCD" transform="translate(15,17)"/>
<path d="M0 0 C3.53790403 3.69172595 3.59115883 7.09390595 4 12 C2.29159719 10.36587557 1.06546953 9.13093906 0 7 C-0.04022391 4.6670134 -0.04320247 2.33293334 0 0 Z " fill="#739B37" transform="translate(95,77)"/>
<path d="M0 0 C1.32 0 2.64 0 4 0 C4 0.99 4 1.98 4 3 C4.99 3 5.98 3 7 3 C6.67 4.32 6.34 5.64 6 7 C4.02 4.69 2.04 2.38 0 0 Z " fill="#5CA62B" transform="translate(80,85)"/>
<path d="M0 0 C2.34058637 2.12780579 3.70700306 4.11562221 5 7 C3.68 7 2.36 7 1 7 C0.67 7.66 0.34 8.32 0 9 C0 6 0 3 0 0 Z " fill="#7FABCE" transform="translate(42,35)"/>
<path d="M0 0 C0.99 0 1.98 0 3 0 C2.34 1.32 1.68 2.64 1 4 C-1.97 4 -4.94 4 -8 4 C-8 3.67 -8 3.34 -8 3 C-6.865625 2.87625 -5.73125 2.7525 -4.5625 2.625 C-3.386875 2.41875 -2.21125 2.2125 -1 2 C-0.67 1.34 -0.34 0.68 0 0 Z " fill="#297F05" transform="translate(88,81)"/>
<path d="M0 0 C2.00720923 0.28674418 4.0085944 0.61866701 6 1 C6 1.33 6 1.66 6 2 C4.35 2.33 2.7 2.66 1 3 C1 3.99 1 4.98 1 6 C0.34 6 -0.32 6 -1 6 C-1.042721 4.33388095 -1.04063832 2.66617115 -1 1 C-0.67 0.67 -0.34 0.34 0 0 Z " fill="#277C07" transform="translate(46,60)"/>
<path d="M0 0 C1.9375 0.3125 1.9375 0.3125 4 1 C4.33 1.99 4.66 2.98 5 4 C4.01 4.33 3.02 4.66 2 5 C1.01 4.01 0.02 3.02 -1 2 C-0.67 1.34 -0.34 0.68 0 0 Z " fill="#010203" transform="translate(47,38)"/>
</svg>
